<?xml version="1.0" encoding="utf-8"?>
<!-- Generator: Adobe Illustrator 18.0.0, SVG Export Plug-In . SVG Version: 6.00 Build 0)  -->
<!DOCTYPE svg PUBLIC "-//W3C//DTD SVG 1.1//EN" "http://www.w3.org/Graphics/SVG/1.1/DTD/svg11.dtd">
<svg version="1.1" id="Layer_1" xmlns="http://www.w3.org/2000/svg" xmlns:xlink="http://www.w3.org/1999/xlink" x="0px" y="0px"
	 viewBox="0 0 395.4 27.2" enable-background="new 0 0 395.4 27.2" xml:space="preserve">
<g>
	<path fill="#DBC182" d="M0,7.1V0h28.6l3.1,3.3v7H20.9v17H14l-3.3-3.1V10.3H3.3L0,7.1z M17,6.3h10.8V0.8H0.8v5.5h10.7v17H17V6.3z
		 M13.3,4.6H2.6v-2H26v2H15.2v17h-1.9V4.6z"/>
	<path fill="#DBC182" d="M46.1,14.6C41.5,10.1,35.8,4.6,31.3,0h10.1l8.2,8.2L57.8,0h10.1l3,3.3L56.4,17.8v9.5h-7l-3.3-3.1V14.6z
		 M52.4,23.3v-9L65.9,0.8h-7.8l-8.5,8.5l-8.6-8.5h-7.8l13.7,13.5v9H52.4z M37.6,2.6h2.8l9.3,9.1l9.1-9.1h2.8l-11,10.9v8h-2v-7.9
		L37.6,2.6z"/>
	<path fill="#DBC182" d="M72.3,24.1V0h18.2c3.3,0,6.3,0.7,10.2,5.2c1.2,1.2,1.6,3.4,1.6,5.8c0,3.4-1.6,5.7-4.7,7
		c-1.7,0.6-4.9,0.8-8,0.8c-2.3,0-4.5,0-7,0v8.4h-7L72.3,24.1z M90.6,0.8H73.1v22.5h5.5v-8.5c3.1,0,12.2,0.6,15.5-0.6v0
		C97,13,98.5,11,98.5,7.9C98.5,3,95.3,0.8,90.6,0.8z M76.9,21.5h-2V2.6h15.6c3.5,0,6.1,1.5,6.1,5.3c0,2.3-1.1,3.8-3.2,4.7v0
		c-2.9,1-13.9,0.4-16.6,0.4V21.5z M90.5,11.1c2.1,0,4.1-0.9,4.1-3.2c0-2.4-1.9-3.3-4.1-3.3H76.9v6.5H90.5z M90.6,6.3
		c1,0,2.3,0.3,2.3,1.5c0,1.2-1.4,1.5-2.3,1.5H78.7v-3H90.6z"/>
	<path fill="#DBC182" d="M118.7,0h3.5c4.9,0,8.7,0.8,13.2,6.2c1.9,1.9,3.3,5.3,3.3,9.1c0,8.6-5.5,12-13.3,12H122
		c-4.3,0-8.3-0.9-10.7-3.3c-4.8-4.3-6-7.4-6-11.9C105.3,3.4,110.9,0,118.7,0z M118.7,23.3h3.5c7.4,0,12.6-3.1,12.6-11.2
		s-5.2-11.2-12.6-11.2h-3.5c-7.4,0-12.7,3.1-12.7,11.2S111.3,23.3,118.7,23.3z M118.7,2.6h3.5c6.2,0,10.9,2.6,10.9,9.5
		c0,6.9-4.6,9.5-10.9,9.5h-3.5c-6.2,0-10.9-2.5-10.9-9.5S112.5,2.6,118.7,2.6z M131.1,12c0-5.5-3.9-7.5-8.8-7.5h-3.5
		c-5,0-8.9,2-8.9,7.5c0,5.5,3.9,7.5,8.9,7.5h3.5C127.3,19.5,131.1,17.6,131.1,12z M118.7,17.8c-3.8,0-7.1-1.4-7.1-5.7
		c0-4.3,3.3-5.7,7.1-5.7h3.5c3.8,0,7,1.4,7,5.7c0,4.3-3.2,5.7-7,5.7H118.7z M128.5,12c0-0.5-0.1-1-0.2-1.4c-0.9-0.3-1.9-0.4-2.9-0.4
		H122c-3.4,0-6.4,1.2-6.4,5c0,0.5,0,0.9,0.1,1.3c0.9,0.3,2,0.4,3,0.4h3.5C125.6,17,128.5,15.7,128.5,12z"/>
	<path fill="#DBC182" d="M140.4,7.1V0H169l3.1,3.3v7h-10.8v17h-6.9l-3.3-3.1V10.3h-7.4L140.4,7.1z M157.4,6.3h10.8V0.8h-26.9v5.5
		H152v17h5.4V6.3z M153.7,4.6H143v-2h23.4v2h-10.8v17h-1.9V4.6z"/>
	<path fill="#DBC182" d="M185,8.5h9.6V0h7.2l3.1,3.3v23.9h-7l-3.3-3.1v-5.4H185v8.5h-7l-3.3-3.1V0h7.1l3.1,3.3V8.5z M201,0.8h-5.6
		v8.5h-14.3V0.8h-5.5v22.5h5.5v-8.5h14.3v8.5h5.6V0.8z M197.2,13h-17.9v8.5h-2V2.6h2v8.5h17.9V2.6h2v18.9h-2V13z"/>
	<path fill="#DBC182" d="M209.1,24.1V0h26.8l3.1,3.3v7h-4.9l1.6,1.6V17l3.4,3.3v7h-26.6L209.1,24.1z M235.1,6.3V0.8h-25.2v22.5h25.2
		v-5.5h-19.7v-3h16.3V9.3h-16.3v-3H235.1z M230,11.1V13h-16.3v6.5h19.6v2h-21.6V2.6h21.6v2h-19.6v6.5H230z"/>
	<path fill="#DBC182" d="M242.1,7.1V0h28.6l3.1,3.3v7H263v17h-6.9l-3.3-3.1V10.3h-7.4L242.1,7.1z M259.1,6.3h10.8V0.8h-26.9v5.5
		h10.7v17h5.4V6.3z M255.4,4.6h-10.7v-2h23.4v2h-10.8v17h-1.9V4.6z"/>
	<path fill="#DBC182" d="M276.4,24.1V0h7l3.1,3.3v23.9h-6.9L276.4,24.1z M282.6,0.8h-5.4v22.5h5.4V0.8z M278.9,2.6h1.9v18.9h-1.9
		V2.6z"/>
	<path fill="#DBC182" d="M290.8,12c0-8.7,5.6-12,13.5-12h3.5c4.9,0,8.7,0.4,14,6.4c0.9,0.9,2,2.7,2.8,4l-6.2,3.7l-2.4-2.4
		c-1.5-1-3.1-1.4-4.9-1.4h-3.5c-3.4,0-6.4,1.2-6.4,5c0,0.5,0,0.9,0.1,1.3c0.9,0.3,2,0.4,3,0.4h3.5c2.8,0,5.4-1.1,7.3-3.9l6.4,3.8
		l3,3.2c-3.4,5.8-7.9,7.1-13.6,7.1h-3.5c-4.3,0-8.7-1.1-11.1-3.5C291.6,19.5,290.8,16.5,290.8,12z M315.3,10l5.1-3
		c-2.9-5-7.2-6.2-12.6-6.2h-3.5c-7.4,0-12.7,3.1-12.7,11.2s5.3,11.2,12.7,11.2h3.5c5.4,0,9.7-1.2,12.6-6.2l-5.1-3
		c-1.8,2.6-4.5,3.6-7.5,3.6h-3.5c-3.8,0-7.1-1.4-7.1-5.7c0-4.3,3.3-5.7,7.1-5.7h3.5C310.8,6.3,313.5,7.4,315.3,10z M295.4,12
		c0,5.5,3.9,7.5,8.9,7.5h3.5c3,0,6-0.8,8-3.1l2.1,1.3c-2.4,3.3-6.3,3.8-10.1,3.8h-3.5c-6.2,0-10.9-2.5-10.9-9.5s4.6-9.5,10.9-9.5
		h3.5c3.8,0,7.7,0.4,10.1,3.8l-2.1,1.3c-2-2.3-5.1-3.1-8-3.1h-3.5C299.3,4.6,295.4,6.5,295.4,12z"/>
	<path fill="#DBC182" d="M350.1,3.3l16.7,23.9h-8.5l-3.2-3.1l-1.3-1.9h-12.7c-1.1,1.5-2.5,3.5-3.5,5H329l-3.4-3.1L342.8,0h4.2
		L350.1,3.3z M343.2,0.8l-16,22.5h6.8l3.5-5H352l3.5,5h6.8L346.6,0.8H343.2z M356.4,21.5l-3.5-5h-16.4c-1.2,1.6-2.3,3.3-3.5,5h-2.6
		c4.5-6.3,9.1-12.6,13.5-18.9h1.5l13.2,18.9H356.4z M351.6,14.5L344.9,5l-6.9,9.6H351.6z M348.2,12.8h-6.8l3.4-4.8L348.2,12.8z"/>
	<path fill="#DBC182" d="M367.1,0h7.1l3.1,3.3V17h15l3.1,3.3v7h-25l-3.3-3.1V0z M391.5,23.3v-5.5h-18.1v-17h-5.5v22.5H391.5z
		 M371.6,2.6v17h18.1v2h-20V2.6H371.6z"/>
</g>
</svg>
